ffmpeg started on 2025-07-16 at 16:33:43
Report written to "D:\Convert\FFMetrics\reports\ssim_report-6.txt"
Log level: 32
Command line:
ffmpeg -hide_banner -nostdin -i "G:\\\xc0\xed\xe8\xec\xe5\\Shiza\\\xcb\xe5\xe3\xe5\xed\xe4\xe0 \xee \xc3\xf0\xe0\xed\xea\xf0\xe5\xf1\xf2\xe5\\[SHIZA Project] Grancrest Senki TV [11] [nDrOiDze & Lizaveta]_HEVC.mkv" -i "G:\\\xc0\xed\xe8\xec\xe5\\Shiza\\\xcb\xe5\xe3\xe5\xed\xe4\xe0 \xee \xc3\xf0\xe0\xed\xea\xf0\xe5\xf1\xf2\xe5\\[SHIZA Project] Grancrest Senki TV [11] [nDrOiDze & Lizaveta].mkv" -lavfi "[0:v]settb=AVTB,setpts=PTS-STARTPTS,format=pix_fmts=yuv420p10,fps=24000/1001,scale=1280:720:flags=bicubic[main];[1:v]settb=AVTB,setpts=PTS-STARTPTS,format=pix_fmts=yuv420p,fps=24000/1001,scale=1280:720:flags=bicubic[ref];[main][ref]ssim=eof_action=endall:stats_file='D\\:/Convert/FFMetrics/logs/ssim_logfile-6.txt'" -f null -
Input #0, matroska,webm, from 'G:\Аниме\Shiza\Легенда о Гранкресте\[SHIZA Project] Grancrest Senki TV [11] [nDrOiDze & Lizaveta]_HEVC.mkv':
  Metadata:
    ENCODER         : Lavf61.7.100
  Duration: 00:23:40.07, start: -0.001000, bitrate: 690 kb/s
  Stream #0:0: Video: hevc (Main 10), yuv420p10le(tv, bt709, progressive), 1280x720 [SAR 1:1 DAR 16:9], 23.81 fps, 23.81 tbr, 1k tbn (default)
      Metadata:
        title           : [SHIZA Project] Grancrest Senki TV [WEBRip]
        ENCODER         : Lavc61.19.100 libx265
        BPS             : 492503
        DURATION        : 00:23:40.062000000
        NUMBER_OF_FRAMES: 34048
        NUMBER_OF_BYTES : 87423235
        _STATISTICS_WRITING_APP: mkvpropedit v66.0.0 ('Josie') 64-bit
        _STATISTICS_WRITING_DATE_UTC: 2025-07-14 09:35:52
        _STATISTICS_TAGS: BPS DURATION NUMBER_OF_FRAMES NUMBER_OF_BYTES
  Stream #0:1(rus): Audio: aac (LC), 48000 Hz, stereo, fltp (default)
      Metadata:
        title           : nDrOiDze & Lizaveta
        ENCODER         : Lavc61.19.100 aac
        BPS             : 193542
        DURATION        : 00:23:40.031000000
        NUMBER_OF_FRAMES: 66565
        NUMBER_OF_BYTES : 34354566
        _STATISTICS_WRITING_APP: mkvpropedit v66.0.0 ('Josie') 64-bit
        _STATISTICS_WRITING_DATE_UTC: 2025-07-14 09:35:52
        _STATISTICS_TAGS: BPS DURATION NUMBER_OF_FRAMES NUMBER_OF_BYTES
Input #1, matroska,webm, from 'G:\Аниме\Shiza\Легенда о Гранкресте\[SHIZA Project] Grancrest Senki TV [11] [nDrOiDze & Lizaveta].mkv':
  Metadata:
    encoder         : libebml v1.3.5 + libmatroska v1.4.5
    creation_time   : 2018-03-20T12:57:25.000000Z
  Duration: 00:23:40.05, start: 0.000000, bitrate: 1978 kb/s
  Stream #1:0: Video: h264 (High), yuv420p(progressive), 1280x720 [SAR 1:1 DAR 16:9], 23.81 fps, 23.81 tbr, 1k tbn (default)
      Metadata:
        title           : [SHIZA Project] Grancrest Senki TV [WEBRip]
        BPS             : 1776176
        BPS-eng         : 1776176
        DURATION        : 00:23:40.045000000
        DURATION-eng    : 00:23:40.045000000
        NUMBER_OF_FRAMES: 34048
        NUMBER_OF_FRAMES-eng: 34048
        NUMBER_OF_BYTES : 315281299
        NUMBER_OF_BYTES-eng: 315281299
        _STATISTICS_WRITING_APP: mkvmerge v15.0.0 ('Duel with the Devil') 64-bit
        _STATISTICS_WRITING_APP-eng: mkvmerge v15.0.0 ('Duel with the Devil') 64-bit
        _STATISTICS_WRITING_DATE_UTC: 2018-03-20 12:57:25
        _STATISTICS_WRITING_DATE_UTC-eng: 2018-03-20 12:57:25
        _STATISTICS_TAGS: BPS DURATION NUMBER_OF_FRAMES NUMBER_OF_BYTES
        _STATISTICS_TAGS-eng: BPS DURATION NUMBER_OF_FRAMES NUMBER_OF_BYTES
  Stream #1:1(rus): Audio: aac (LC), 48000 Hz, stereo, fltp (default)
      Metadata:
        title           : nDrOiDze & Lizaveta
        BPS             : 198627
        BPS-eng         : 198627
        DURATION        : 00:23:40.032000000
        DURATION-eng    : 00:23:40.032000000
        NUMBER_OF_FRAMES: 66564
        NUMBER_OF_FRAMES-eng: 66564
        NUMBER_OF_BYTES : 35257212
        NUMBER_OF_BYTES-eng: 35257212
        _STATISTICS_WRITING_APP: mkvmerge v15.0.0 ('Duel with the Devil') 64-bit
        _STATISTICS_WRITING_APP-eng: mkvmerge v15.0.0 ('Duel with the Devil') 64-bit
        _STATISTICS_WRITING_DATE_UTC: 2018-03-20 12:57:25
        _STATISTICS_WRITING_DATE_UTC-eng: 2018-03-20 12:57:25
        _STATISTICS_TAGS: BPS DURATION NUMBER_OF_FRAMES NUMBER_OF_BYTES
        _STATISTICS_TAGS-eng: BPS DURATION NUMBER_OF_FRAMES NUMBER_OF_BYTES
  Stream #1:2: Attachment: ttf
      Metadata:
        filename        : OpenSans-Semibold.ttf
        mimetype        : application/x-truetype-font
Stream mapping:
  Stream #0:0 (hevc) -> settb:default
  Stream #1:0 (h264) -> settb:default
  ssim:default -> Stream #0:0 (wrapped_avframe)
  Stream #0:1 -> #0:1 (aac (native) -> pcm_s16le (native))
[swscaler @ 000001d71149b980] No accelerated colorspace conversion found from yuv420p to bgr48le.
[swscaler @ 000001d7115fb080] No accelerated colorspace conversion found from yuv420p to bgr48le.
[swscaler @ 000001d711757b00] No accelerated colorspace conversion found from yuv420p to bgr48le.
[swscaler @ 000001d71182c3c0] No accelerated colorspace conversion found from yuv420p to bgr48le.
[swscaler @ 000001d711980d00] No accelerated colorspace conversion found from yuv420p to bgr48le.
[swscaler @ 000001d711ab0ac0] No accelerated colorspace conversion found from yuv420p to bgr48le.
[swscaler @ 000001d711c2c740] No accelerated colorspace conversion found from yuv420p to bgr48le.
[swscaler @ 000001d711d15680] No accelerated colorspace conversion found from yuv420p to bgr48le.
[swscaler @ 000001d711df2040] No accelerated colorspace conversion found from yuv420p to bgr48le.
[swscaler @ 000001d711e7c040] No accelerated colorspace conversion found from yuv420p to bgr48le.
[swscaler @ 000001d711ee4040] No accelerated colorspace conversion found from yuv420p to bgr48le.
[swscaler @ 000001d711f44040] No accelerated colorspace conversion found from yuv420p to bgr48le.
[swscaler @ 000001d711f9f040] No accelerated colorspace conversion found from yuv420p to bgr48le.
[swscaler @ 000001d712036040] No accelerated colorspace conversion found from yuv420p to bgr48le.
[swscaler @ 000001d712093040] No accelerated colorspace conversion found from yuv420p to bgr48le.
[swscaler @ 000001d7120bd000] No accelerated colorspace conversion found from yuv420p to bgr48le.
Output #0, null, to 'pipe:':
  Metadata:
    encoder         : Lavf61.7.100
  Stream #0:0: Video: wrapped_avframe, yuv420p10le(tv, bt709, progressive), 1280x720 [SAR 1:1 DAR 16:9], q=2-31, 200 kb/s, 23.98 fps, 23.98 tbn
      Metadata:
        encoder         : Lavc61.19.100 wrapped_avframe
  Stream #0:1(rus): Audio: pcm_s16le, 48000 Hz, stereo, s16, 1536 kb/s (default)
      Metadata:
        title           : nDrOiDze & Lizaveta
        _STATISTICS_TAGS: BPS DURATION NUMBER_OF_FRAMES NUMBER_OF_BYTES
        BPS             : 193542
        DURATION        : 00:23:40.031000000
        NUMBER_OF_FRAMES: 66565
        NUMBER_OF_BYTES : 34354566
        _STATISTICS_WRITING_APP: mkvpropedit v66.0.0 ('Josie') 64-bit
        _STATISTICS_WRITING_DATE_UTC: 2025-07-14 09:35:52
        encoder         : Lavc61.19.100 pcm_s16le
frame=   83 fps=0.0 q=-0.0 size=N/A time=00:00:03.46 bitrate=N/A speed=6.84x    frame=  183 fps=178 q=-0.0 size=N/A time=00:00:07.63 bitrate=N/A speed=7.41x    frame=  278 fps=181 q=-0.0 size=N/A time=00:00:11.59 bitrate=N/A speed=7.54x    frame=  379 fps=184 q=-0.0 size=N/A time=00:00:15.80 bitrate=N/A speed=7.66x    frame=  479 fps=185 q=-0.0 size=N/A time=00:00:19.97 bitrate=N/A speed=7.73x    frame=  574 fps=186 q=-0.0 size=N/A time=00:00:23.94 bitrate=N/A speed=7.75x    frame=  675 fps=187 q=-0.0 size=N/A time=00:00:28.15 bitrate=N/A speed= 7.8x    frame=  769 fps=187 q=-0.0 size=N/A time=00:00:32.07 bitrate=N/A speed=7.79x    frame=  872 fps=188 q=-0.0 size=N/A time=00:00:36.36 bitrate=N/A speed=7.83x    frame=  968 fps=188 q=-0.0 size=N/A time=00:00:40.37 bitrate=N/A speed=7.84x    frame= 1062 fps=187 q=-0.0 size=N/A time=00:00:44.29 bitrate=N/A speed=7.82x    frame= 1150 fps=186 q=-0.0 size=N/A time=00:00:47.96 bitrate=N/A speed=7.75x    frame= 1250 fps=187 q=-0.0 size=N/A time=00:00:52.13 bitrate=N/A speed=7.78x    frame= 1353 fps=187 q=-0.0 size=N/A time=00:00:56.43 bitrate=N/A speed=7.81x    frame= 1451 fps=187 q=-0.0 size=N/A time=00:01:00.51 bitrate=N/A speed=7.81x    frame= 1551 fps=188 q=-0.0 size=N/A time=00:01:04.68 bitrate=N/A speed=7.82x    frame= 1647 fps=188 q=-0.0 size=N/A time=00:01:08.69 bitrate=N/A speed=7.83x    frame= 1748 fps=188 q=-0.0 size=N/A time=00:01:12.90 bitrate=N/A speed=7.84x    frame= 1841 fps=188 q=-0.0 size=N/A time=00:01:16.78 bitrate=N/A speed=7.83x    frame= 1934 fps=187 q=-0.0 size=N/A time=00:01:20.66 bitrate=N/A speed=7.81x    frame= 2033 fps=188 q=-0.0 size=N/A time=00:01:24.79 bitrate=N/A speed=7.82x    frame= 2130 fps=187 q=-0.0 size=N/A time=00:01:28.83 bitrate=N/A speed=7.82x    frame= 2221 fps=187 q=-0.0 size=N/A time=00:01:32.63 bitrate=N/A speed= 7.8x    frame= 2309 fps=186 q=-0.0 size=N/A time=00:01:36.30 bitrate=N/A speed=7.77x    frame= 2406 fps=187 q=-0.0 size=N/A time=00:01:40.35 bitrate=N/A speed=7.78x    frame= 2508 fps=187 q=-0.0 size=N/A time=00:01:44.60 bitrate=N/A speed=7.79x    frame= 2605 fps=187 q=-0.0 size=N/A time=00:01:48.65 bitrate=N/A speed= 7.8x    frame= 2706 fps=187 q=-0.0 size=N/A time=00:01:52.86 bitrate=N/A speed=7.81x    frame= 2800 fps=187 q=-0.0 size=N/A time=00:01:56.78 bitrate=N/A speed= 7.8x    frame= 2889 fps=187 q=-0.0 size=N/A time=00:02:00.49 bitrate=N/A speed=7.78x    frame= 2991 fps=187 q=-0.0 size=N/A time=00:02:04.74 bitrate=N/A speed= 7.8x    frame= 3091 fps=187 q=-0.0 size=N/A time=00:02:08.92 bitrate=N/A speed=7.81x    frame= 3188 fps=187 q=-0.0 size=N/A time=00:02:12.96 bitrate=N/A speed=7.81x    frame= 3282 fps=187 q=-0.0 size=N/A time=00:02:16.88 bitrate=N/A speed=7.81x    frame= 3384 fps=187 q=-0.0 size=N/A time=00:02:21.14 bitrate=N/A speed=7.81x    frame= 3482 fps=187 q=-0.0 size=N/A time=00:02:25.22 bitrate=N/A speed=7.82x    frame= 3579 fps=187 q=-0.0 size=N/A time=00:02:29.27 bitrate=N/A speed=7.82x    frame= 3673 fps=187 q=-0.0 size=N/A time=00:02:33.19 bitrate=N/A speed=7.81x    frame= 3766 fps=187 q=-0.0 size=N/A time=00:02:37.07 bitrate=N/A speed= 7.8x    frame= 3854 fps=187 q=-0.0 size=N/A time=00:02:40.74 bitrate=N/A speed=7.79x    frame= 3956 fps=187 q=-0.0 size=N/A time=00:02:44.99 bitrate=N/A speed= 7.8x    frame= 4047 fps=187 q=-0.0 size=N/A time=00:02:48.79 bitrate=N/A speed=7.79x    frame= 4142 fps=187 q=-0.0 size=N/A time=00:02:52.75 bitrate=N/A speed=7.79x    frame= 4233 fps=186 q=-0.0 size=N/A time=00:02:56.55 bitrate=N/A speed=7.78x    frame= 4341 fps=187 q=-0.0 size=N/A time=00:03:01.05 bitrate=N/A speed= 7.8x    frame= 4437 fps=187 q=-0.0 size=N/A time=00:03:05.05 bitrate=N/A speed=7.79x    frame= 4537 fps=187 q=-0.0 size=N/A time=00:03:09.23 bitrate=N/A speed= 7.8x    frame= 4635 fps=187 q=-0.0 size=N/A time=00:03:13.31 bitrate=N/A speed= 7.8x    frame= 4731 fps=187 q=-0.0 size=N/A time=00:03:17.32 bitrate=N/A speed= 7.8x    frame= 4824 fps=187 q=-0.0 size=N/A time=00:03:21.20 bitrate=N/A speed= 7.8x    frame= 4923 fps=187 q=-0.0 size=N/A time=00:03:25.33 bitrate=N/A speed= 7.8x    frame= 5016 fps=187 q=-0.0 size=N/A time=00:03:29.20 bitrate=N/A speed= 7.8x    frame= 5113 fps=187 q=-0.0 size=N/A time=00:03:33.25 bitrate=N/A speed=7.79x    frame= 5202 fps=187 q=-0.0 size=N/A time=00:03:36.96 bitrate=N/A speed=7.79x    frame= 5283 fps=186 q=-0.0 size=N/A time=00:03:40.34 bitrate=N/A speed=7.76x    frame= 5377 fps=186 q=-0.0 size=N/A time=00:03:44.26 bitrate=N/A speed=7.76x    frame= 5472 fps=186 q=-0.0 size=N/A time=00:03:48.22 bitrate=N/A speed=7.76x    frame= 5561 fps=186 q=-0.0 size=N/A time=00:03:51.94 bitrate=N/A speed=7.75x    frame= 5666 fps=186 q=-0.0 size=N/A time=00:03:56.31 bitrate=N/A speed=7.76x    frame= 5753 fps=186 q=-0.0 size=N/A time=00:03:59.94 bitrate=N/A speed=7.75x    frame= 5851 fps=186 q=-0.0 size=N/A time=00:04:04.03 bitrate=N/A speed=7.75x    frame= 5954 fps=186 q=-0.0 size=N/A time=00:04:08.33 bitrate=N/A speed=7.76x    frame= 6054 fps=186 q=-0.0 size=N/A time=00:04:12.50 bitrate=N/A speed=7.77x    frame= 6144 fps=186 q=-0.0 size=N/A time=00:04:16.25 bitrate=N/A speed=7.76x    frame= 6249 fps=186 q=-0.0 size=N/A time=00:04:20.63 bitrate=N/A speed=7.77x    frame= 6349 fps=186 q=-0.0 size=N/A time=00:04:24.80 bitrate=N/A speed=7.78x    frame= 6453 fps=187 q=-0.0 size=N/A time=00:04:29.14 bitrate=N/A speed=7.78x    frame= 6552 fps=187 q=-0.0 size=N/A time=00:04:33.27 bitrate=N/A speed=7.79x    frame= 6653 fps=187 q=-0.0 size=N/A time=00:04:37.48 bitrate=N/A speed=7.79x    frame= 6757 fps=187 q=-0.0 size=N/A time=00:04:41.82 bitrate=N/A speed= 7.8x    frame= 6856 fps=187 q=-0.0 size=N/A time=00:04:45.95 bitrate=N/A speed= 7.8x    frame= 6955 fps=187 q=-0.0 size=N/A time=00:04:50.08 bitrate=N/A speed=7.81x    frame= 7054 fps=187 q=-0.0 size=N/A time=00:04:54.21 bitrate=N/A speed=7.81x    frame= 7154 fps=187 q=-0.0 size=N/A time=00:04:58.38 bitrate=N/A speed=7.82x    frame= 7254 fps=187 q=-0.0 size=N/A time=00:05:02.55 bitrate=N/A speed=7.82x    frame= 7355 fps=188 q=-0.0 size=N/A time=00:05:06.76 bitrate=N/A speed=7.82x    frame= 7458 fps=188 q=-0.0 size=N/A time=00:05:11.06 bitrate=N/A speed=7.83x    frame= 7558 fps=188 q=-0.0 size=N/A time=00:05:15.23 bitrate=N/A speed=7.83x    frame= 7647 fps=188 q=-0.0 size=N/A time=00:05:18.94 bitrate=N/A speed=7.82x    frame= 7755 fps=188 q=-0.0 size=N/A time=00:05:23.44 bitrate=N/A speed=7.84x    frame= 7854 fps=188 q=-0.0 size=N/A time=00:05:27.57 bitrate=N/A speed=7.84x    frame= 7954 fps=188 q=-0.0 size=N/A time=00:05:31.74 bitrate=N/A speed=7.84x    frame= 8049 fps=188 q=-0.0 size=N/A time=00:05:35.71 bitrate=N/A speed=7.84x    frame= 8145 fps=188 q=-0.0 size=N/A time=00:05:39.71 bitrate=N/A speed=7.84x    frame= 8237 fps=188 q=-0.0 size=N/A time=00:05:43.55 bitrate=N/A speed=7.83x    frame= 8333 fps=188 q=-0.0 size=N/A time=00:05:47.55 bitrate=N/A speed=7.83x    frame= 8438 fps=188 q=-0.0 size=N/A time=00:05:51.93 bitrate=N/A speed=7.84x    frame= 8535 fps=188 q=-0.0 size=N/A time=00:05:55.98 bitrate=N/A speed=7.84x    frame= 8633 fps=188 q=-0.0 size=N/A time=00:06:00.06 bitrate=N/A speed=7.84x    frame= 8729 fps=188 q=-0.0 size=N/A time=00:06:04.07 bitrate=N/A speed=7.84x    frame= 8817 fps=188 q=-0.0 size=N/A time=00:06:07.74 bitrate=N/A speed=7.83x    frame= 8921 fps=188 q=-0.0 size=N/A time=00:06:12.08 bitrate=N/A speed=7.84x    frame= 9017 fps=188 q=-0.0 size=N/A time=00:06:16.08 bitrate=N/A speed=7.84x    frame= 9106 fps=188 q=-0.0 size=N/A time=00:06:19.79 bitrate=N/A speed=7.83x    frame= 9215 fps=188 q=-0.0 size=N/A time=00:06:24.34 bitrate=N/A speed=7.84x    frame= 9314 fps=188 q=-0.0 size=N/A time=00:06:28.47 bitrate=N/A speed=7.84x    frame= 9413 fps=188 q=-0.0 size=N/A time=00:06:32.60 bitrate=N/A speed=7.85x    frame= 9514 fps=188 q=-0.0 size=N/A time=00:06:36.81 bitrate=N/A speed=7.85x    frame= 9613 fps=188 q=-0.0 size=N/A time=00:06:40.94 bitrate=N/A speed=7.85x    frame= 9712 fps=188 q=-0.0 size=N/A time=00:06:45.07 bitrate=N/A speed=7.85x    frame= 9812 fps=188 q=-0.0 size=N/A time=00:06:49.24 bitrate=N/A speed=7.85x    frame= 9915 fps=188 q=-0.0 size=N/A time=00:06:53.53 bitrate=N/A speed=7.86x    frame=10012 fps=188 q=-0.0 size=N/A time=00:06:57.58 bitrate=N/A speed=7.86x    frame=10101 fps=188 q=-0.0 size=N/A time=00:07:01.29 bitrate=N/A speed=7.85x    frame=10208 fps=188 q=-0.0 size=N/A time=00:07:05.75 bitrate=N/A speed=7.86x    frame=10303 fps=188 q=-0.0 size=N/A time=00:07:09.72 bitrate=N/A speed=7.86x    frame=10404 fps=188 q=-0.0 size=N/A time=00:07:13.93 bitrate=N/A speed=7.86x    frame=10496 fps=188 q=-0.0 size=N/A time=00:07:17.77 bitrate=N/A speed=7.86x    frame=10593 fps=188 q=-0.0 size=N/A time=00:07:21.81 bitrate=N/A speed=7.86x    frame=10691 fps=188 q=-0.0 size=N/A time=00:07:25.90 bitrate=N/A speed=7.86x    frame=10787 fps=188 q=-0.0 size=N/A time=00:07:29.90 bitrate=N/A speed=7.86x    frame=10877 fps=188 q=-0.0 size=N/A time=00:07:33.66 bitrate=N/A speed=7.85x    frame=10968 fps=188 q=-0.0 size=N/A time=00:07:37.45 bitrate=N/A speed=7.85x    frame=11068 fps=188 q=-0.0 size=N/A time=00:07:41.62 bitrate=N/A speed=7.85x    frame=11166 fps=188 q=-0.0 size=N/A time=00:07:45.71 bitrate=N/A speed=7.85x    frame=11261 fps=188 q=-0.0 size=N/A time=00:07:49.67 bitrate=N/A speed=7.85x    frame=11365 fps=188 q=-0.0 size=N/A time=00:07:54.01 bitrate=N/A speed=7.85x    frame=11461 fps=188 q=-0.0 size=N/A time=00:07:58.01 bitrate=N/A speed=7.85x    frame=11565 fps=188 q=-0.0 size=N/A time=00:08:02.35 bitrate=N/A speed=7.86x    frame=11664 fps=188 q=-0.0 size=N/A time=00:08:06.48 bitrate=N/A speed=7.86x    frame=11754 fps=188 q=-0.0 size=N/A time=00:08:10.23 bitrate=N/A speed=7.85x    frame=11868 fps=189 q=-0.0 size=N/A time=00:08:14.99 bitrate=N/A speed=7.86x    frame=11970 fps=189 q=-0.0 size=N/A time=00:08:19.24 bitrate=N/A speed=7.87x    frame=12070 fps=189 q=-0.0 size=N/A time=00:08:23.41 bitrate=N/A speed=7.87x    frame=12166 fps=189 q=-0.0 size=N/A time=00:08:27.42 bitrate=N/A speed=7.87x    frame=12269 fps=189 q=-0.0 size=N/A time=00:08:31.71 bitrate=N/A speed=7.87x    frame=12353 fps=189 q=-0.0 size=N/A time=00:08:35.22 bitrate=N/A speed=7.87x    frame=12468 fps=189 q=-0.0 size=N/A time=00:08:40.01 bitrate=N/A speed=7.88x    frame=12561 fps=189 q=-0.0 size=N/A time=00:08:43.89 bitrate=N/A speed=7.87x    frame=12668 fps=189 q=-0.0 size=N/A time=00:08:48.36 bitrate=N/A speed=7.88x    frame=12767 fps=189 q=-0.0 size=N/A time=00:08:52.49 bitrate=N/A speed=7.88x    frame=12868 fps=189 q=-0.0 size=N/A time=00:08:56.70 bitrate=N/A speed=7.88x    frame=12966 fps=189 q=-0.0 size=N/A time=00:09:00.79 bitrate=N/A speed=7.88x    frame=13067 fps=189 q=-0.0 size=N/A time=00:09:05.00 bitrate=N/A speed=7.88x    frame=13158 fps=189 q=-0.0 size=N/A time=00:09:08.79 bitrate=N/A speed=7.88x    frame=13259 fps=189 q=-0.0 size=N/A time=00:09:13.01 bitrate=N/A speed=7.88x    frame=13361 fps=189 q=-0.0 size=N/A time=00:09:17.26 bitrate=N/A speed=7.88x    frame=13461 fps=189 q=-0.0 size=N/A time=00:09:21.43 bitrate=N/A speed=7.89x    frame=13559 fps=189 q=-0.0 size=N/A time=00:09:25.52 bitrate=N/A speed=7.89x    frame=13656 fps=189 q=-0.0 size=N/A time=00:09:29.56 bitrate=N/A speed=7.89x    frame=13756 fps=189 q=-0.0 size=N/A time=00:09:33.73 bitrate=N/A speed=7.89x    frame=13854 fps=189 q=-0.0 size=N/A time=00:09:37.82 bitrate=N/A speed=7.89x    frame=13954 fps=189 q=-0.0 size=N/A time=00:09:41.99 bitrate=N/A speed=7.89x    frame=14048 fps=189 q=-0.0 size=N/A time=00:09:45.91 bitrate=N/A speed=7.89x    frame=14139 fps=189 q=-0.0 size=N/A time=00:09:49.71 bitrate=N/A speed=7.88x    frame=14236 fps=189 q=-0.0 size=N/A time=00:09:53.75 bitrate=N/A speed=7.88x    frame=14326 fps=189 q=-0.0 size=N/A time=00:09:57.51 bitrate=N/A speed=7.88x    frame=14426 fps=189 q=-0.0 size=N/A time=00:10:01.68 bitrate=N/A speed=7.88x    frame=14517 fps=189 q=-0.0 size=N/A time=00:10:05.47 bitrate=N/A speed=7.88x    frame=14605 fps=189 q=-0.0 size=N/A time=00:10:09.15 bitrate=N/A speed=7.87x    frame=14697 fps=189 q=-0.0 size=N/A time=00:10:12.98 bitrate=N/A speed=7.87x    frame=14793 fps=189 q=-0.0 size=N/A time=00:10:16.99 bitrate=N/A speed=7.87x    frame=14890 fps=189 q=-0.0 size=N/A time=00:10:21.03 bitrate=N/A speed=7.87x    frame=14996 fps=189 q=-0.0 size=N/A time=00:10:25.45 bitrate=N/A speed=7.87x    frame=15090 fps=189 q=-0.0 size=N/A time=00:10:29.37 bitrate=N/A speed=7.87x    frame=15199 fps=189 q=-0.0 size=N/A time=00:10:33.92 bitrate=N/A speed=7.88x    frame=15298 fps=189 q=-0.0 size=N/A time=00:10:38.05 bitrate=N/A speed=7.88x    frame=15400 fps=189 q=-0.0 size=N/A time=00:10:42.30 bitrate=N/A speed=7.88x    frame=15500 fps=189 q=-0.0 size=N/A time=00:10:46.47 bitrate=N/A speed=7.88x    frame=15599 fps=189 q=-0.0 size=N/A time=00:10:50.60 bitrate=N/A speed=7.88x    frame=15703 fps=189 q=-0.0 size=N/A time=00:10:54.94 bitrate=N/A speed=7.89x    frame=15805 fps=189 q=-0.0 size=N/A time=00:10:59.20 bitrate=N/A speed=7.89x    frame=15905 fps=189 q=-0.0 size=N/A time=00:11:03.37 bitrate=N/A speed=7.89x    frame=16006 fps=189 q=-0.0 size=N/A time=00:11:07.58 bitrate=N/A speed=7.89x    frame=16110 fps=189 q=-0.0 size=N/A time=00:11:11.92 bitrate=N/A speed=7.89x    frame=16206 fps=189 q=-0.0 size=N/A time=00:11:15.92 bitrate=N/A speed=7.89x    frame=16316 fps=189 q=-0.0 size=N/A time=00:11:20.51 bitrate=N/A speed= 7.9x    frame=16414 fps=189 q=-0.0 size=N/A time=00:11:24.60 bitrate=N/A speed= 7.9x    frame=16517 fps=189 q=-0.0 size=N/A time=00:11:28.89 bitrate=N/A speed= 7.9x    frame=16613 fps=189 q=-0.0 size=N/A time=00:11:32.90 bitrate=N/A speed= 7.9x    frame=16704 fps=189 q=-0.0 size=N/A time=00:11:36.69 bitrate=N/A speed= 7.9x    frame=16813 fps=190 q=-0.0 size=N/A time=00:11:41.24 bitrate=N/A speed= 7.9x    frame=16912 fps=190 q=-0.0 size=N/A time=00:11:45.37 bitrate=N/A speed=7.91x    frame=17021 fps=190 q=-0.0 size=N/A time=00:11:49.91 bitrate=N/A speed=7.91x    frame=17110 fps=190 q=-0.0 size=N/A time=00:11:53.62 bitrate=N/A speed=7.91x    frame=17217 fps=190 q=-0.0 size=N/A time=00:11:58.09 bitrate=N/A speed=7.91x    frame=17307 fps=190 q=-0.0 size=N/A time=00:12:01.84 bitrate=N/A speed=7.91x    frame=17413 fps=190 q=-0.0 size=N/A time=00:12:06.26 bitrate=N/A speed=7.91x    frame=17507 fps=190 q=-0.0 size=N/A time=00:12:10.18 bitrate=N/A speed=7.91x    frame=17605 fps=190 q=-0.0 size=N/A time=00:12:14.27 bitrate=N/A speed=7.91x    frame=17704 fps=190 q=-0.0 size=N/A time=00:12:18.40 bitrate=N/A speed=7.91x    frame=17800 fps=190 q=-0.0 size=N/A time=00:12:22.40 bitrate=N/A speed=7.91x    frame=17901 fps=190 q=-0.0 size=N/A time=00:12:26.62 bitrate=N/A speed=7.91x    frame=17995 fps=190 q=-0.0 size=N/A time=00:12:30.54 bitrate=N/A speed=7.91x    frame=18094 fps=190 q=-0.0 size=N/A time=00:12:34.67 bitrate=N/A speed=7.91x    frame=18197 fps=190 q=-0.0 size=N/A time=00:12:38.96 bitrate=N/A speed=7.91x    frame=18291 fps=190 q=-0.0 size=N/A time=00:12:42.88 bitrate=N/A speed=7.91x    frame=18389 fps=190 q=-0.0 size=N/A time=00:12:46.97 bitrate=N/A speed=7.91x    frame=18486 fps=190 q=-0.0 size=N/A time=00:12:51.02 bitrate=N/A speed=7.91x    frame=18584 fps=190 q=-0.0 size=N/A time=00:12:55.10 bitrate=N/A speed=7.91x    frame=18673 fps=190 q=-0.0 size=N/A time=00:12:58.81 bitrate=N/A speed=7.91x    frame=18779 fps=190 q=-0.0 size=N/A time=00:13:03.24 bitrate=N/A speed=7.91x    frame=18888 fps=190 q=-0.0 size=N/A time=00:13:07.78 bitrate=N/A speed=7.91x    frame=18977 fps=190 q=-0.0 size=N/A time=00:13:11.49 bitrate=N/A speed=7.91x    frame=19084 fps=190 q=-0.0 size=N/A time=00:13:15.96 bitrate=N/A speed=7.91x    frame=19175 fps=190 q=-0.0 size=N/A time=00:13:19.75 bitrate=N/A speed=7.91x    frame=19277 fps=190 q=-0.0 size=N/A time=00:13:24.01 bitrate=N/A speed=7.91x    frame=19366 fps=190 q=-0.0 size=N/A time=00:13:27.72 bitrate=N/A speed=7.91x    frame=19465 fps=190 q=-0.0 size=N/A time=00:13:31.85 bitrate=N/A speed=7.91x    frame=19557 fps=190 q=-0.0 size=N/A time=00:13:35.68 bitrate=N/A speed=7.91x    frame=19658 fps=190 q=-0.0 size=N/A time=00:13:39.90 bitrate=N/A speed=7.91x    frame=19750 fps=190 q=-0.0 size=N/A time=00:13:43.73 bitrate=N/A speed=7.91x    frame=19849 fps=190 q=-0.0 size=N/A time=00:13:47.86 bitrate=N/A speed=7.91x    frame=19949 fps=190 q=-0.0 size=N/A time=00:13:52.03 bitrate=N/A speed=7.91x    frame=20046 fps=190 q=-0.0 size=N/A time=00:13:56.08 bitrate=N/A speed=7.91x    frame=20142 fps=190 q=-0.0 size=N/A time=00:14:00.08 bitrate=N/A speed=7.91x    frame=20234 fps=189 q=-0.0 size=N/A time=00:14:03.92 bitrate=N/A speed= 7.9x    frame=20328 fps=189 q=-0.0 size=N/A time=00:14:07.84 bitrate=N/A speed= 7.9x    frame=20428 fps=189 q=-0.0 size=N/A time=00:14:12.01 bitrate=N/A speed= 7.9x    frame=20515 fps=189 q=-0.0 size=N/A time=00:14:15.64 bitrate=N/A speed= 7.9x    frame=20627 fps=190 q=-0.0 size=N/A time=00:14:20.31 bitrate=N/A speed= 7.9x    frame=20725 fps=190 q=-0.0 size=N/A time=00:14:24.40 bitrate=N/A speed= 7.9x    frame=20825 fps=190 q=-0.0 size=N/A time=00:14:28.57 bitrate=N/A speed=7.91x    frame=20918 fps=190 q=-0.0 size=N/A time=00:14:32.45 bitrate=N/A speed= 7.9x    frame=21015 fps=189 q=-0.0 size=N/A time=00:14:36.50 bitrate=N/A speed= 7.9x    frame=21121 fps=190 q=-0.0 size=N/A time=00:14:40.92 bitrate=N/A speed=7.91x    frame=21217 fps=190 q=-0.0 size=N/A time=00:14:44.92 bitrate=N/A speed=7.91x    frame=21317 fps=190 q=-0.0 size=N/A time=00:14:49.09 bitrate=N/A speed=7.91x    frame=21415 fps=190 q=-0.0 size=N/A time=00:14:53.18 bitrate=N/A speed=7.91x    frame=21502 fps=189 q=-0.0 size=N/A time=00:14:56.81 bitrate=N/A speed= 7.9x    frame=21608 fps=190 q=-0.0 size=N/A time=00:15:01.23 bitrate=N/A speed=7.91x    frame=21699 fps=189 q=-0.0 size=N/A time=00:15:05.02 bitrate=N/A speed= 7.9x    frame=21800 fps=190 q=-0.0 size=N/A time=00:15:09.24 bitrate=N/A speed= 7.9x    frame=21902 fps=190 q=-0.0 size=N/A time=00:15:13.49 bitrate=N/A speed=7.91x    frame=21999 fps=190 q=-0.0 size=N/A time=00:15:17.54 bitrate=N/A speed=7.91x    frame=22098 fps=190 q=-0.0 size=N/A time=00:15:21.67 bitrate=N/A speed=7.91x    frame=22196 fps=190 q=-0.0 size=N/A time=00:15:25.75 bitrate=N/A speed=7.91x    frame=22296 fps=190 q=-0.0 size=N/A time=00:15:29.92 bitrate=N/A speed=7.91x    frame=22398 fps=190 q=-0.0 size=N/A time=00:15:34.18 bitrate=N/A speed=7.91x    frame=22490 fps=190 q=-0.0 size=N/A time=00:15:38.02 bitrate=N/A speed=7.91x    frame=22592 fps=190 q=-0.0 size=N/A time=00:15:42.27 bitrate=N/A speed=7.91x    frame=22691 fps=190 q=-0.0 size=N/A time=00:15:46.40 bitrate=N/A speed=7.91x    frame=22793 fps=190 q=-0.0 size=N/A time=00:15:50.65 bitrate=N/A speed=7.91x    frame=22888 fps=190 q=-0.0 size=N/A time=00:15:54.62 bitrate=N/A speed=7.91x    frame=22991 fps=190 q=-0.0 size=N/A time=00:15:58.91 bitrate=N/A speed=7.91x    frame=23087 fps=190 q=-0.0 size=N/A time=00:16:02.92 bitrate=N/A speed=7.91x    frame=23190 fps=190 q=-0.0 size=N/A time=00:16:07.21 bitrate=N/A speed=7.91x    frame=23275 fps=190 q=-0.0 size=N/A time=00:16:10.76 bitrate=N/A speed=7.91x    frame=23391 fps=190 q=-0.0 size=N/A time=00:16:15.59 bitrate=N/A speed=7.91x    frame=23483 fps=190 q=-0.0 size=N/A time=00:16:19.43 bitrate=N/A speed=7.91x    frame=23592 fps=190 q=-0.0 size=N/A time=00:16:23.98 bitrate=N/A speed=7.92x    frame=23685 fps=190 q=-0.0 size=N/A time=00:16:27.86 bitrate=N/A speed=7.91x    frame=23789 fps=190 q=-0.0 size=N/A time=00:16:32.19 bitrate=N/A speed=7.92x    frame=23890 fps=190 q=-0.0 size=N/A time=00:16:36.41 bitrate=N/A speed=7.92x    frame=23977 fps=190 q=-0.0 size=N/A time=00:16:40.04 bitrate=N/A speed=7.91x    frame=24093 fps=190 q=-0.0 size=N/A time=00:16:44.87 bitrate=N/A speed=7.92x    frame=24185 fps=190 q=-0.0 size=N/A time=00:16:48.71 bitrate=N/A speed=7.92x    frame=24296 fps=190 q=-0.0 size=N/A time=00:16:53.34 bitrate=N/A speed=7.92x    frame=24396 fps=190 q=-0.0 size=N/A time=00:16:57.51 bitrate=N/A speed=7.92x    frame=24490 fps=190 q=-0.0 size=N/A time=00:17:01.43 bitrate=N/A speed=7.92x    frame=24589 fps=190 q=-0.0 size=N/A time=00:17:05.56 bitrate=N/A speed=7.92x    frame=24683 fps=190 q=-0.0 size=N/A time=00:17:09.48 bitrate=N/A speed=7.92x    frame=24784 fps=190 q=-0.0 size=N/A time=00:17:13.69 bitrate=N/A speed=7.92x    frame=24884 fps=190 q=-0.0 size=N/A time=00:17:17.87 bitrate=N/A speed=7.92x    frame=24987 fps=190 q=-0.0 size=N/A time=00:17:22.16 bitrate=N/A speed=7.92x    frame=25088 fps=190 q=-0.0 size=N/A time=00:17:26.37 bitrate=N/A speed=7.92x    frame=25189 fps=190 q=-0.0 size=N/A time=00:17:30.59 bitrate=N/A speed=7.93x    frame=25287 fps=190 q=-0.0 size=N/A time=00:17:34.67 bitrate=N/A speed=7.93x    frame=25386 fps=190 q=-0.0 size=N/A time=00:17:38.80 bitrate=N/A speed=7.93x    frame=25479 fps=190 q=-0.0 size=N/A time=00:17:42.68 bitrate=N/A speed=7.92x    frame=25581 fps=190 q=-0.0 size=N/A time=00:17:46.94 bitrate=N/A speed=7.93x    frame=25693 fps=190 q=-0.0 size=N/A time=00:17:51.61 bitrate=N/A speed=7.93x    frame=25793 fps=190 q=-0.0 size=N/A time=00:17:55.78 bitrate=N/A speed=7.93x    frame=25897 fps=190 q=-0.0 size=N/A time=00:18:00.12 bitrate=N/A speed=7.93x    frame=25998 fps=190 q=-0.0 size=N/A time=00:18:04.33 bitrate=N/A speed=7.93x    frame=26100 fps=190 q=-0.0 size=N/A time=00:18:08.58 bitrate=N/A speed=7.93x    frame=26198 fps=190 q=-0.0 size=N/A time=00:18:12.67 bitrate=N/A speed=7.93x    frame=26297 fps=190 q=-0.0 size=N/A time=00:18:16.80 bitrate=N/A speed=7.93x    frame=26401 fps=190 q=-0.0 size=N/A time=00:18:21.14 bitrate=N/A speed=7.94x    frame=26497 fps=190 q=-0.0 size=N/A time=00:18:25.14 bitrate=N/A speed=7.94x    frame=26594 fps=190 q=-0.0 size=N/A time=00:18:29.19 bitrate=N/A speed=7.93x    frame=26692 fps=190 q=-0.0 size=N/A time=00:18:33.27 bitrate=N/A speed=7.94x    frame=26806 fps=190 q=-0.0 size=N/A time=00:18:38.03 bitrate=N/A speed=7.94x    frame=26901 fps=190 q=-0.0 size=N/A time=00:18:41.99 bitrate=N/A speed=7.94x    frame=27005 fps=190 q=-0.0 size=N/A time=00:18:46.33 bitrate=N/A speed=7.94x    frame=27104 fps=190 q=-0.0 size=N/A time=00:18:50.46 bitrate=N/A speed=7.94x    frame=27206 fps=190 q=-0.0 size=N/A time=00:18:54.71 bitrate=N/A speed=7.94x    frame=27306 fps=190 q=-0.0 size=N/A time=00:18:58.88 bitrate=N/A speed=7.94x    frame=27397 fps=190 q=-0.0 size=N/A time=00:19:02.68 bitrate=N/A speed=7.94x    frame=27506 fps=190 q=-0.0 size=N/A time=00:19:07.22 bitrate=N/A speed=7.94x    frame=27604 fps=190 q=-0.0 size=N/A time=00:19:11.31 bitrate=N/A speed=7.94x    frame=27700 fps=190 q=-0.0 size=N/A time=00:19:15.32 bitrate=N/A speed=7.94x    frame=27797 fps=190 q=-0.0 size=N/A time=00:19:19.36 bitrate=N/A speed=7.94x    frame=27906 fps=191 q=-0.0 size=N/A time=00:19:23.91 bitrate=N/A speed=7.95x    frame=27994 fps=190 q=-0.0 size=N/A time=00:19:27.58 bitrate=N/A speed=7.94x    frame=28109 fps=191 q=-0.0 size=N/A time=00:19:32.37 bitrate=N/A speed=7.95x    frame=28207 fps=191 q=-0.0 size=N/A time=00:19:36.46 bitrate=N/A speed=7.95x    frame=28305 fps=191 q=-0.0 size=N/A time=00:19:40.55 bitrate=N/A speed=7.95x    frame=28409 fps=191 q=-0.0 size=N/A time=00:19:44.89 bitrate=N/A speed=7.95x    frame=28498 fps=191 q=-0.0 size=N/A time=00:19:48.60 bitrate=N/A speed=7.95x    frame=28611 fps=191 q=-0.0 size=N/A time=00:19:53.31 bitrate=N/A speed=7.95x    frame=28714 fps=191 q=-0.0 size=N/A time=00:19:57.61 bitrate=N/A speed=7.95x    frame=28811 fps=191 q=-0.0 size=N/A time=00:20:01.65 bitrate=N/A speed=7.95x    frame=28915 fps=191 q=-0.0 size=N/A time=00:20:05.99 bitrate=N/A speed=7.95x    frame=29017 fps=191 q=-0.0 size=N/A time=00:20:10.25 bitrate=N/A speed=7.95x    frame=29115 fps=191 q=-0.0 size=N/A time=00:20:14.33 bitrate=N/A speed=7.95x    frame=29218 fps=191 q=-0.0 size=N/A time=00:20:18.63 bitrate=N/A speed=7.96x    frame=29317 fps=191 q=-0.0 size=N/A time=00:20:22.76 bitrate=N/A speed=7.96x    frame=29416 fps=191 q=-0.0 size=N/A time=00:20:26.89 bitrate=N/A speed=7.96x    frame=29524 fps=191 q=-0.0 size=N/A time=00:20:31.39 bitrate=N/A speed=7.96x    frame=29619 fps=191 q=-0.0 size=N/A time=00:20:35.35 bitrate=N/A speed=7.96x    frame=29728 fps=191 q=-0.0 size=N/A time=00:20:39.90 bitrate=N/A speed=7.96x    frame=29829 fps=191 q=-0.0 size=N/A time=00:20:44.11 bitrate=N/A speed=7.96x    frame=29924 fps=191 q=-0.0 size=N/A time=00:20:48.08 bitrate=N/A speed=7.96x    frame=30021 fps=191 q=-0.0 size=N/A time=00:20:52.12 bitrate=N/A speed=7.96x    frame=30112 fps=191 q=-0.0 size=N/A time=00:20:55.92 bitrate=N/A speed=7.96x    frame=30207 fps=191 q=-0.0 size=N/A time=00:20:59.88 bitrate=N/A speed=7.96x    frame=30308 fps=191 q=-0.0 size=N/A time=00:21:04.09 bitrate=N/A speed=7.96x    frame=30400 fps=191 q=-0.0 size=N/A time=00:21:07.93 bitrate=N/A speed=7.96x    frame=30490 fps=191 q=-0.0 size=N/A time=00:21:11.68 bitrate=N/A speed=7.95x    frame=30600 fps=191 q=-0.0 size=N/A time=00:21:16.27 bitrate=N/A speed=7.96x    frame=30686 fps=191 q=-0.0 size=N/A time=00:21:19.86 bitrate=N/A speed=7.95x    frame=30798 fps=191 q=-0.0 size=N/A time=00:21:24.53 bitrate=N/A speed=7.96x    frame=30889 fps=191 q=-0.0 size=N/A time=00:21:28.32 bitrate=N/A speed=7.96x    frame=30981 fps=191 q=-0.0 size=N/A time=00:21:32.16 bitrate=N/A speed=7.95x    frame=31083 fps=191 q=-0.0 size=N/A time=00:21:36.42 bitrate=N/A speed=7.95x    frame=31170 fps=191 q=-0.0 size=N/A time=00:21:40.04 bitrate=N/A speed=7.95x    frame=31269 fps=191 q=-0.0 size=N/A time=00:21:44.17 bitrate=N/A speed=7.95x    frame=31362 fps=191 q=-0.0 size=N/A time=00:21:48.05 bitrate=N/A speed=7.95x    frame=31455 fps=191 q=-0.0 size=N/A time=00:21:51.93 bitrate=N/A speed=7.95x    frame=31561 fps=191 q=-0.0 size=N/A time=00:21:56.35 bitrate=N/A speed=7.95x    frame=31657 fps=191 q=-0.0 size=N/A time=00:22:00.36 bitrate=N/A speed=7.95x    frame=31759 fps=191 q=-0.0 size=N/A time=00:22:04.61 bitrate=N/A speed=7.95x    frame=31861 fps=191 q=-0.0 size=N/A time=00:22:08.86 bitrate=N/A speed=7.95x    frame=31961 fps=191 q=-0.0 size=N/A time=00:22:13.04 bitrate=N/A speed=7.95x    frame=32056 fps=191 q=-0.0 size=N/A time=00:22:17.00 bitrate=N/A speed=7.95x    frame=32148 fps=191 q=-0.0 size=N/A time=00:22:20.83 bitrate=N/A speed=7.95x    frame=32254 fps=191 q=-0.0 size=N/A time=00:22:25.26 bitrate=N/A speed=7.95x    frame=32349 fps=191 q=-0.0 size=N/A time=00:22:29.22 bitrate=N/A speed=7.95x    frame=32446 fps=191 q=-0.0 size=N/A time=00:22:33.26 bitrate=N/A speed=7.95x    frame=32536 fps=191 q=-0.0 size=N/A time=00:22:37.02 bitrate=N/A speed=7.95x    frame=32640 fps=191 q=-0.0 size=N/A time=00:22:41.36 bitrate=N/A speed=7.95x    frame=32722 fps=191 q=-0.0 size=N/A time=00:22:44.78 bitrate=N/A speed=7.95x    frame=32833 fps=191 q=-0.0 size=N/A time=00:22:49.40 bitrate=N/A speed=7.95x    frame=32933 fps=191 q=-0.0 size=N/A time=00:22:53.58 bitrate=N/A speed=7.95x    frame=33030 fps=191 q=-0.0 size=N/A time=00:22:57.62 bitrate=N/A speed=7.95x    frame=33119 fps=191 q=-0.0 size=N/A time=00:23:01.33 bitrate=N/A speed=7.95x    frame=33209 fps=190 q=-0.0 size=N/A time=00:23:05.09 bitrate=N/A speed=7.94x    frame=33305 fps=190 q=-0.0 size=N/A time=00:23:09.09 bitrate=N/A speed=7.94x    frame=33396 fps=190 q=-0.0 size=N/A time=00:23:12.89 bitrate=N/A speed=7.94x    frame=33501 fps=190 q=-0.0 size=N/A time=00:23:17.27 bitrate=N/A speed=7.94x    frame=33592 fps=190 q=-0.0 size=N/A time=00:23:21.06 bitrate=N/A speed=7.94x    frame=33679 fps=190 q=-0.0 size=N/A time=00:23:24.69 bitrate=N/A speed=7.94x    frame=33776 fps=190 q=-0.0 size=N/A time=00:23:28.74 bitrate=N/A speed=7.94x    frame=33882 fps=190 q=-0.0 size=N/A time=00:23:33.16 bitrate=N/A speed=7.94x    frame=33989 fps=190 q=-0.0 size=N/A time=00:23:37.62 bitrate=N/A speed=7.94x    [Parsed_ssim_10 @ 000001d704ece640] SSIM Y:0.990758 (20.342322) U:0.993462 (21.845370) V:0.993971 (22.197210) All:0.991744 (20.832312)
[out#0/null @ 000001d705645b00] video:14630KiB audio:266260KiB subtitle:0KiB other streams:0KiB global headers:0KiB muxing overhead: unknown
frame=34047 fps=190 q=-0.0 Lsize=N/A time=00:23:40.04 bitrate=N/A speed=7.94x    
